<mxfile host="Electron" modified="2024-03-28T01:12:30.072Z" agent="Mozilla/5.0 (Windows NT 10.0; Win64; x64) AppleWebKit/537.36 (KHTML, like Gecko) draw.io/24.0.4 Chrome/120.0.6099.109 Electron/28.1.0 Safari/537.36" etag="_9v0YckYcHrli9OGNVPa" version="24.0.4" type="device">
  <diagram name="PÃ¡gina-1" id="RDinv8P8d8wfcmwiv2I8">
    <mxGraphModel dx="682" dy="471" grid="1" gridSize="10" guides="1" tooltips="1" connect="1" arrows="1" fold="1" page="1" pageScale="1" pageWidth="827" pageHeight="1169" background="#4D4D4D" math="0" shadow="0">
      <root>
        <mxCell id="0" />
        <mxCell id="1" parent="0" />
        <mxCell id="J_jVZHjTORruIZ5uN9DY-1" value="Media" style="swimlane;fontStyle=1;align=center;verticalAlign=top;childLayout=stackLayout;horizontal=1;startSize=26;horizontalStack=0;resizeParent=1;resizeParentMax=0;resizeLast=0;collapsible=1;marginBottom=0;whiteSpace=wrap;html=1;" vertex="1" parent="1">
          <mxGeometry x="380" y="370" width="160" height="60" as="geometry" />
        </mxCell>
        <mxCell id="J_jVZHjTORruIZ5uN9DY-3" value="" style="line;strokeWidth=1;fillColor=none;align=left;verticalAlign=middle;spacingTop=-1;spacingLeft=3;spacingRight=3;rotatable=0;labelPosition=right;points=[];portConstraint=eastwest;strokeColor=inherit;" vertex="1" parent="J_jVZHjTORruIZ5uN9DY-1">
          <mxGeometry y="26" width="160" height="8" as="geometry" />
        </mxCell>
        <mxCell id="J_jVZHjTORruIZ5uN9DY-4" value="+ play ()" style="text;strokeColor=none;fillColor=none;align=left;verticalAlign=top;spacingLeft=4;spacingRight=4;overflow=hidden;rotatable=0;points=[[0,0.5],[1,0.5]];portConstraint=eastwest;whiteSpace=wrap;html=1;" vertex="1" parent="J_jVZHjTORruIZ5uN9DY-1">
          <mxGeometry y="34" width="160" height="26" as="geometry" />
        </mxCell>
        <mxCell id="J_jVZHjTORruIZ5uN9DY-5" value="Audio" style="swimlane;fontStyle=1;align=center;verticalAlign=top;childLayout=stackLayout;horizontal=1;startSize=26;horizontalStack=0;resizeParent=1;resizeParentMax=0;resizeLast=0;collapsible=1;marginBottom=0;whiteSpace=wrap;html=1;" vertex="1" parent="1">
          <mxGeometry x="184" y="490" width="160" height="86" as="geometry" />
        </mxCell>
        <mxCell id="J_jVZHjTORruIZ5uN9DY-6" value="" style="line;strokeWidth=1;fillColor=none;align=left;verticalAlign=middle;spacingTop=-1;spacingLeft=3;spacingRight=3;rotatable=0;labelPosition=right;points=[];portConstraint=eastwest;strokeColor=inherit;" vertex="1" parent="J_jVZHjTORruIZ5uN9DY-5">
          <mxGeometry y="26" width="160" height="8" as="geometry" />
        </mxCell>
        <mxCell id="J_jVZHjTORruIZ5uN9DY-36" value="+&amp;lt;&amp;lt;create&amp;gt;&amp;gt; Audio()" style="text;strokeColor=none;fillColor=none;align=left;verticalAlign=top;spacingLeft=4;spacingRight=4;overflow=hidden;rotatable=0;points=[[0,0.5],[1,0.5]];portConstraint=eastwest;whiteSpace=wrap;html=1;" vertex="1" parent="J_jVZHjTORruIZ5uN9DY-5">
          <mxGeometry y="34" width="160" height="26" as="geometry" />
        </mxCell>
        <mxCell id="J_jVZHjTORruIZ5uN9DY-7" value="+ play ()" style="text;strokeColor=none;fillColor=none;align=left;verticalAlign=top;spacingLeft=4;spacingRight=4;overflow=hidden;rotatable=0;points=[[0,0.5],[1,0.5]];portConstraint=eastwest;whiteSpace=wrap;html=1;" vertex="1" parent="J_jVZHjTORruIZ5uN9DY-5">
          <mxGeometry y="60" width="160" height="26" as="geometry" />
        </mxCell>
        <mxCell id="J_jVZHjTORruIZ5uN9DY-8" value="VideoFile" style="swimlane;fontStyle=1;align=center;verticalAlign=top;childLayout=stackLayout;horizontal=1;startSize=26;horizontalStack=0;resizeParent=1;resizeParentMax=0;resizeLast=0;collapsible=1;marginBottom=0;whiteSpace=wrap;html=1;" vertex="1" parent="1">
          <mxGeometry x="380" y="490" width="160" height="86" as="geometry" />
        </mxCell>
        <mxCell id="J_jVZHjTORruIZ5uN9DY-9" value="" style="line;strokeWidth=1;fillColor=none;align=left;verticalAlign=middle;spacingTop=-1;spacingLeft=3;spacingRight=3;rotatable=0;labelPosition=right;points=[];portConstraint=eastwest;strokeColor=inherit;" vertex="1" parent="J_jVZHjTORruIZ5uN9DY-8">
          <mxGeometry y="26" width="160" height="8" as="geometry" />
        </mxCell>
        <mxCell id="J_jVZHjTORruIZ5uN9DY-35" value="+&amp;lt;&amp;lt;create&amp;gt;&amp;gt; VideoFile()" style="text;strokeColor=none;fillColor=none;align=left;verticalAlign=top;spacingLeft=4;spacingRight=4;overflow=hidden;rotatable=0;points=[[0,0.5],[1,0.5]];portConstraint=eastwest;whiteSpace=wrap;html=1;" vertex="1" parent="J_jVZHjTORruIZ5uN9DY-8">
          <mxGeometry y="34" width="160" height="26" as="geometry" />
        </mxCell>
        <mxCell id="J_jVZHjTORruIZ5uN9DY-10" value="+ play ()" style="text;strokeColor=none;fillColor=none;align=left;verticalAlign=top;spacingLeft=4;spacingRight=4;overflow=hidden;rotatable=0;points=[[0,0.5],[1,0.5]];portConstraint=eastwest;whiteSpace=wrap;html=1;" vertex="1" parent="J_jVZHjTORruIZ5uN9DY-8">
          <mxGeometry y="60" width="160" height="26" as="geometry" />
        </mxCell>
        <mxCell id="J_jVZHjTORruIZ5uN9DY-11" value="VideoStream" style="swimlane;fontStyle=1;align=center;verticalAlign=top;childLayout=stackLayout;horizontal=1;startSize=26;horizontalStack=0;resizeParent=1;resizeParentMax=0;resizeLast=0;collapsible=1;marginBottom=0;whiteSpace=wrap;html=1;" vertex="1" parent="1">
          <mxGeometry x="605" y="630" width="160" height="90" as="geometry" />
        </mxCell>
        <mxCell id="J_jVZHjTORruIZ5uN9DY-12" value="" style="line;strokeWidth=1;fillColor=none;align=left;verticalAlign=middle;spacingTop=-1;spacingLeft=3;spacingRight=3;rotatable=0;labelPosition=right;points=[];portConstraint=eastwest;strokeColor=inherit;" vertex="1" parent="J_jVZHjTORruIZ5uN9DY-11">
          <mxGeometry y="26" width="160" height="8" as="geometry" />
        </mxCell>
        <mxCell id="J_jVZHjTORruIZ5uN9DY-13" value="+ reproduce ()" style="text;strokeColor=none;fillColor=none;align=left;verticalAlign=top;spacingLeft=4;spacingRight=4;overflow=hidden;rotatable=0;points=[[0,0.5],[1,0.5]];portConstraint=eastwest;whiteSpace=wrap;html=1;" vertex="1" parent="J_jVZHjTORruIZ5uN9DY-11">
          <mxGeometry y="34" width="160" height="26" as="geometry" />
        </mxCell>
        <mxCell id="J_jVZHjTORruIZ5uN9DY-29" value="Adaptee" style="text;html=1;align=center;verticalAlign=middle;resizable=0;points=[];autosize=1;strokeColor=#6F0000;fillColor=#a20025;fontColor=#ffffff;rounded=1;glass=0;shadow=0;textShadow=0;sketch=1;curveFitting=1;jiggle=2;" vertex="1" parent="J_jVZHjTORruIZ5uN9DY-11">
          <mxGeometry y="60" width="160" height="30" as="geometry" />
        </mxCell>
        <mxCell id="J_jVZHjTORruIZ5uN9DY-20" style="edgeStyle=orthogonalEdgeStyle;rounded=0;orthogonalLoop=1;jettySize=auto;html=1;" edge="1" parent="1" source="J_jVZHjTORruIZ5uN9DY-17" target="J_jVZHjTORruIZ5uN9DY-1">
          <mxGeometry relative="1" as="geometry" />
        </mxCell>
        <mxCell id="J_jVZHjTORruIZ5uN9DY-17" value="MediaPlayer" style="swimlane;fontStyle=1;align=center;verticalAlign=top;childLayout=stackLayout;horizontal=1;startSize=26;horizontalStack=0;resizeParent=1;resizeParentMax=0;resizeLast=0;collapsible=1;marginBottom=0;whiteSpace=wrap;html=1;" vertex="1" parent="1">
          <mxGeometry x="150" y="370" width="160" height="60" as="geometry" />
        </mxCell>
        <mxCell id="J_jVZHjTORruIZ5uN9DY-18" value="" style="line;strokeWidth=1;fillColor=none;align=left;verticalAlign=middle;spacingTop=-1;spacingLeft=3;spacingRight=3;rotatable=0;labelPosition=right;points=[];portConstraint=eastwest;strokeColor=inherit;" vertex="1" parent="J_jVZHjTORruIZ5uN9DY-17">
          <mxGeometry y="26" width="160" height="8" as="geometry" />
        </mxCell>
        <mxCell id="J_jVZHjTORruIZ5uN9DY-38" value="+&amp;lt;&amp;lt;create&amp;gt;&amp;gt; MediaPlayer()" style="text;strokeColor=none;fillColor=none;align=left;verticalAlign=top;spacingLeft=4;spacingRight=4;overflow=hidden;rotatable=0;points=[[0,0.5],[1,0.5]];portConstraint=eastwest;whiteSpace=wrap;html=1;" vertex="1" parent="J_jVZHjTORruIZ5uN9DY-17">
          <mxGeometry y="34" width="160" height="26" as="geometry" />
        </mxCell>
        <mxCell id="J_jVZHjTORruIZ5uN9DY-21" value="media *" style="text;html=1;align=center;verticalAlign=middle;resizable=0;points=[];autosize=1;strokeColor=none;fillColor=none;" vertex="1" parent="1">
          <mxGeometry x="310" y="370" width="60" height="30" as="geometry" />
        </mxCell>
        <mxCell id="J_jVZHjTORruIZ5uN9DY-22" value="VideoStreamAdapter" style="swimlane;fontStyle=1;align=center;verticalAlign=top;childLayout=stackLayout;horizontal=1;startSize=26;horizontalStack=0;resizeParent=1;resizeParentMax=0;resizeLast=0;collapsible=1;marginBottom=0;whiteSpace=wrap;html=1;" vertex="1" parent="1">
          <mxGeometry x="580" y="490" width="210" height="116" as="geometry" />
        </mxCell>
        <mxCell id="J_jVZHjTORruIZ5uN9DY-23" value="" style="line;strokeWidth=1;fillColor=none;align=left;verticalAlign=middle;spacingTop=-1;spacingLeft=3;spacingRight=3;rotatable=0;labelPosition=right;points=[];portConstraint=eastwest;strokeColor=inherit;" vertex="1" parent="J_jVZHjTORruIZ5uN9DY-22">
          <mxGeometry y="26" width="210" height="8" as="geometry" />
        </mxCell>
        <mxCell id="J_jVZHjTORruIZ5uN9DY-37" value="+&amp;lt;&amp;lt;create&amp;gt;&amp;gt; VideoStreamAdapter()" style="text;strokeColor=none;fillColor=none;align=left;verticalAlign=top;spacingLeft=4;spacingRight=4;overflow=hidden;rotatable=0;points=[[0,0.5],[1,0.5]];portConstraint=eastwest;whiteSpace=wrap;html=1;" vertex="1" parent="J_jVZHjTORruIZ5uN9DY-22">
          <mxGeometry y="34" width="210" height="26" as="geometry" />
        </mxCell>
        <mxCell id="J_jVZHjTORruIZ5uN9DY-24" value="+ play ()" style="text;strokeColor=none;fillColor=none;align=left;verticalAlign=top;spacingLeft=4;spacingRight=4;overflow=hidden;rotatable=0;points=[[0,0.5],[1,0.5]];portConstraint=eastwest;whiteSpace=wrap;html=1;" vertex="1" parent="J_jVZHjTORruIZ5uN9DY-22">
          <mxGeometry y="60" width="210" height="26" as="geometry" />
        </mxCell>
        <mxCell id="J_jVZHjTORruIZ5uN9DY-30" value="Adapter" style="text;html=1;align=center;verticalAlign=middle;resizable=0;points=[];autosize=1;strokeColor=#6F0000;fillColor=#a20025;fontColor=#ffffff;rounded=1;glass=0;shadow=0;textShadow=0;sketch=1;curveFitting=1;jiggle=2;" vertex="1" parent="J_jVZHjTORruIZ5uN9DY-22">
          <mxGeometry y="86" width="210" height="30" as="geometry" />
        </mxCell>
        <mxCell id="J_jVZHjTORruIZ5uN9DY-25" value="" style="endArrow=open;endSize=12;dashed=1;html=1;rounded=0;" edge="1" parent="1" source="J_jVZHjTORruIZ5uN9DY-22" target="J_jVZHjTORruIZ5uN9DY-11">
          <mxGeometry width="160" relative="1" as="geometry">
            <mxPoint x="570" y="610" as="sourcePoint" />
            <mxPoint x="730" y="610" as="targetPoint" />
          </mxGeometry>
        </mxCell>
        <mxCell id="J_jVZHjTORruIZ5uN9DY-26" value="" style="endArrow=block;endSize=16;endFill=0;html=1;rounded=0;" edge="1" parent="1" source="J_jVZHjTORruIZ5uN9DY-5" target="J_jVZHjTORruIZ5uN9DY-1">
          <mxGeometry width="160" relative="1" as="geometry">
            <mxPoint x="370" y="530" as="sourcePoint" />
            <mxPoint x="530" y="530" as="targetPoint" />
          </mxGeometry>
        </mxCell>
        <mxCell id="J_jVZHjTORruIZ5uN9DY-27" value="" style="endArrow=block;endSize=16;endFill=0;html=1;rounded=0;" edge="1" parent="1" source="J_jVZHjTORruIZ5uN9DY-8" target="J_jVZHjTORruIZ5uN9DY-1">
          <mxGeometry width="160" relative="1" as="geometry">
            <mxPoint x="323" y="500" as="sourcePoint" />
            <mxPoint x="421" y="440" as="targetPoint" />
          </mxGeometry>
        </mxCell>
        <mxCell id="J_jVZHjTORruIZ5uN9DY-28" value="" style="endArrow=block;endSize=16;endFill=0;html=1;rounded=0;" edge="1" parent="1" source="J_jVZHjTORruIZ5uN9DY-22" target="J_jVZHjTORruIZ5uN9DY-1">
          <mxGeometry width="160" relative="1" as="geometry">
            <mxPoint x="333" y="510" as="sourcePoint" />
            <mxPoint x="431" y="450" as="targetPoint" />
          </mxGeometry>
        </mxCell>
        <mxCell id="J_jVZHjTORruIZ5uN9DY-33" value="Target" style="text;html=1;align=center;verticalAlign=middle;resizable=0;points=[];autosize=1;strokeColor=#6F0000;fillColor=#a20025;fontColor=#ffffff;rounded=1;glass=0;shadow=0;textShadow=0;sketch=1;curveFitting=1;jiggle=2;" vertex="1" parent="1">
          <mxGeometry x="480" y="330" width="60" height="30" as="geometry" />
        </mxCell>
        <mxCell id="J_jVZHjTORruIZ5uN9DY-34" value="Client" style="text;html=1;align=center;verticalAlign=middle;resizable=0;points=[];autosize=1;strokeColor=#6F0000;fillColor=#a20025;fontColor=#ffffff;rounded=1;glass=0;shadow=0;textShadow=0;sketch=1;curveFitting=1;jiggle=2;" vertex="1" parent="1">
          <mxGeometry x="245" y="337" width="50" height="30" as="geometry" />
        </mxCell>
      </root>
    </mxGraphModel>
  </diagram>
</mxfile>
